<svg width="584" height="665" xmlns="http://www.w3.org/2000/svg" xmlns:xlink="http://www.w3.org/1999/xlink" xml:space="preserve" overflow="hidden"><defs><clipPath id="clip0"><rect x="335" y="1500" width="584" height="665"/></clipPath></defs><g clip-path="url(#clip0)" transform="translate(-335 -1500)"><path d="M763 1811.29C713.675 1811.29 673.689 1851.22 673.689 1900.47 673.689 1949.71 713.675 1989.64 763 1989.64 812.325 1989.64 852.31 1949.71 852.31 1900.47 852.31 1851.22 812.325 1811.29 763 1811.29ZM763.087 1743C849.195 1743 919 1812.38 919 1897.95 919 1983.53 874.343 2069.05 763.985 2165 650.933 2069.05 603.732 1983.53 607.175 1897.95 610.617 1812.38 676.979 1743 763.087 1743Z" fill-rule="evenodd"/><rect x="451" y="1784" width="79.0001" height="170"/><path d="M490.343 1565.73C440.487 1565.73 400.07 1606.14 400.07 1656 400.07 1705.86 440.487 1746.27 490.343 1746.27 540.2 1746.27 580.616 1705.86 580.616 1656 580.616 1606.14 540.2 1565.73 490.343 1565.73ZM491 1500C577.156 1500 647 1569.84 647 1656 647 1742.16 577.156 1812 491 1812 404.844 1812 335 1742.16 335 1656 335 1569.84 404.844 1500 491 1500Z" fill-rule="evenodd"/></g></svg>