<svg width="2051" height="603" xmlns="http://www.w3.org/2000/svg" xmlns:xlink="http://www.w3.org/1999/xlink" xml:space="preserve" overflow="hidden"><defs><clipPath id="clip0"><rect x="816" y="923" width="2051" height="603"/></clipPath></defs><g clip-path="url(#clip0)" transform="translate(-816 -923)"><path d="M1474.95 1286.27C1487.87 1286.27 1498.5 1290.23 1506.87 1298.14 1515.23 1306.05 1519.41 1315.86 1519.41 1327.58 1519.41 1339 1515.23 1348.59 1506.87 1356.36 1498.5 1364.12 1487.87 1368 1474.95 1368 1461.75 1368 1450.97 1364.12 1442.6 1356.36 1434.24 1348.59 1430.06 1339 1430.06 1327.58 1430.06 1315.86 1434.24 1306.05 1442.6 1298.14 1450.97 1290.23 1461.75 1286.27 1474.95 1286.27ZM2738.03 1181.26C2723.06 1181.26 2710.37 1186.6 2699.95 1197.3 2689.54 1207.99 2684.33 1222.71 2684.33 1241.45 2684.33 1260.2 2689.54 1275.07 2699.95 1286.05 2710.37 1297.04 2723.06 1302.53 2738.03 1302.53 2753 1302.53 2765.69 1297.11 2776.1 1286.27 2786.52 1275.43 2791.73 1260.64 2791.73 1241.89 2791.73 1223.15 2786.52 1208.35 2776.1 1197.52 2765.69 1186.68 2753 1181.26 2738.03 1181.26ZM2029.02 1119.3 2103.85 1119.3 2103.85 1252.44C2103.85 1268.84 2108.11 1281.59 2116.62 1290.67 2125.13 1299.75 2136.57 1304.29 2150.95 1304.29 2165.62 1304.29 2177.21 1299.75 2185.72 1290.67 2194.23 1281.59 2198.49 1268.84 2198.49 1252.44L2198.49 1119.3 2273.76 1119.3 2273.76 1364.49 2198.49 1364.49 2198.49 1331.09C2190.86 1341.93 2180.51 1350.64 2167.46 1357.24 2154.4 1363.83 2139.94 1367.12 2124.1 1367.12 2105.32 1367.12 2088.74 1362.95 2074.36 1354.6 2059.98 1346.25 2048.83 1334.17 2040.91 1318.35 2032.98 1302.53 2029.02 1283.93 2029.02 1262.55ZM2476.62 1116.67C2505.38 1116.67 2528.34 1125.97 2545.51 1144.57 2562.68 1163.17 2571.26 1188.73 2571.26 1221.24L2571.26 1364.49 2496.43 1364.49 2496.43 1231.35C2496.43 1214.94 2492.17 1202.2 2483.67 1193.12 2475.15 1184.04 2463.71 1179.5 2449.33 1179.5 2434.95 1179.5 2423.51 1184.04 2415 1193.12 2406.49 1202.2 2402.23 1214.94 2402.23 1231.35L2402.23 1364.49 2326.96 1364.49 2326.96 1119.3 2402.23 1119.3 2402.23 1151.82C2409.86 1140.98 2420.13 1132.41 2433.04 1126.11 2445.96 1119.82 2460.48 1116.67 2476.62 1116.67ZM1293.66 1116.67C1322.42 1116.67 1345.38 1125.97 1362.55 1144.57 1379.71 1163.17 1388.3 1188.73 1388.3 1221.24L1388.3 1364.49 1313.47 1364.49 1313.47 1231.35C1313.47 1214.94 1309.21 1202.2 1300.7 1193.12 1292.19 1184.04 1280.75 1179.5 1266.37 1179.5 1251.99 1179.5 1240.54 1184.04 1232.03 1193.12 1223.52 1202.2 1219.27 1214.94 1219.27 1231.35L1219.27 1364.49 1144 1364.49 1144 1119.3 1219.27 1119.3 1219.27 1151.82C1226.9 1140.98 1237.17 1132.41 1250.08 1126.11 1262.99 1119.82 1277.52 1116.67 1293.66 1116.67ZM2791.73 1039.33 2867 1039.33 2867 1364.49 2791.73 1364.49 2791.73 1329.33C2784.69 1341.05 2774.64 1350.42 2761.58 1357.45 2748.52 1364.49 2733.33 1368 2716.02 1368 2695.77 1368 2677.43 1362.8 2661 1352.4 2644.57 1342 2631.58 1327.21 2622.04 1308.02 2612.51 1288.84 2607.74 1266.65 2607.74 1241.45 2607.74 1216.26 2612.51 1194.15 2622.04 1175.11 2631.58 1156.07 2644.57 1141.42 2661 1131.17 2677.43 1120.91 2695.77 1115.79 2716.02 1115.79 2732.16 1115.79 2746.91 1119.16 2760.26 1125.89 2773.61 1132.63 2784.1 1141.71 2791.73 1153.14ZM1673.14 1020C1678.72 1020 1682.83 1020.15 1685.47 1020.44L1685.47 1084.15C1671.09 1083.27 1660.96 1085.32 1655.1 1090.3 1649.23 1095.28 1646.29 1104.22 1646.29 1117.11L1646.29 1119.3 1686.79 1119.3 1686.79 1181.7 1646.29 1181.7 1646.29 1364.49 1571.02 1364.49 1571.02 1181.7 1543.73 1181.7 1543.73 1119.3 1571.02 1119.3 1571.02 1112.27C1571.02 1082.1 1579.68 1059.18 1596.99 1043.51 1614.31 1027.84 1639.69 1020 1673.14 1020Z" fill-rule="evenodd"/><path d="M1854 1171.46C1804.67 1171.46 1764.69 1211.47 1764.69 1260.84 1764.69 1310.2 1804.67 1350.22 1854 1350.22 1903.32 1350.22 1943.31 1310.2 1943.31 1260.84 1943.31 1211.47 1903.32 1171.46 1854 1171.46ZM1854.09 1103C1940.2 1103 2010 1172.54 2010 1258.32 2010 1344.1 1965.34 1429.82 1854.99 1526 1741.93 1429.82 1694.73 1344.1 1698.17 1258.32 1701.62 1172.54 1767.98 1103 1854.09 1103Z" fill-rule="evenodd"/><rect x="932" y="1206" width="79.0001" height="171"/><path d="M971.343 988.727C921.487 988.727 881.07 1029.14 881.07 1079 881.07 1128.86 921.487 1169.27 971.343 1169.27 1021.2 1169.27 1061.62 1128.86 1061.62 1079 1061.62 1029.14 1021.2 988.727 971.343 988.727ZM972 923C1058.16 923 1128 992.843 1128 1079 1128 1165.16 1058.16 1235 972 1235 885.844 1235 816 1165.16 816 1079 816 992.843 885.844 923 972 923Z" fill-rule="evenodd"/></g></svg>